<mxfile host="drawio-plugin" modified="2021-06-05T20:12:00.721Z" agent="5.0 (Windows NT 6.2; Win64; x64) AppleWebKit/537.36 (KHTML, like Gecko) Chrome/87.0.4280.141 Safari/537.36" etag="0Xihxm0ll6QeoDFBVl2V" version="14.6.6" type="embed" pages="3"><diagram id="CEzgyfS1ZEKbiMNEQ5bn" name="Page-1"><mxGraphModel dx="1148" dy="701" grid="1" gridSize="10" guides="1" tooltips="1" connect="1" arrows="1" fold="1" page="1" pageScale="1" pageWidth="827" pageHeight="1169" math="0" shadow="0"><root><mxCell id="0"/><mxCell id="1" parent="0"/><mxCell id="S0CsdJAvT5r21fd5XkQx-24" value="Aluno" style="swimlane;fontStyle=0;childLayout=stackLayout;horizontal=1;startSize=26;fillColor=none;horizontalStack=0;resizeParent=1;resizeParentMax=0;resizeLast=0;collapsible=1;marginBottom=0;" parent="1" vertex="1"><mxGeometry x="240" y="480" width="140" height="104" as="geometry"/></mxCell><mxCell id="S0CsdJAvT5r21fd5XkQx-26" value="+ Nome" style="text;strokeColor=none;fillColor=none;align=left;verticalAlign=top;spacingLeft=4;spacingRight=4;overflow=hidden;rotatable=0;points=[[0,0.5],[1,0.5]];portConstraint=eastwest;" parent="S0CsdJAvT5r21fd5XkQx-24" vertex="1"><mxGeometry y="26" width="140" height="26" as="geometry"/></mxCell><mxCell id="S0CsdJAvT5r21fd5XkQx-25" value="+ Sobrenome" style="text;strokeColor=none;fillColor=none;align=left;verticalAlign=top;spacingLeft=4;spacingRight=4;overflow=hidden;rotatable=0;points=[[0,0.5],[1,0.5]];portConstraint=eastwest;" parent="S0CsdJAvT5r21fd5XkQx-24" vertex="1"><mxGeometry y="52" width="140" height="26" as="geometry"/></mxCell><mxCell id="S0CsdJAvT5r21fd5XkQx-27" value="+ Código" style="text;strokeColor=none;fillColor=none;align=left;verticalAlign=top;spacingLeft=4;spacingRight=4;overflow=hidden;rotatable=0;points=[[0,0.5],[1,0.5]];portConstraint=eastwest;" parent="S0CsdJAvT5r21fd5XkQx-24" vertex="1"><mxGeometry y="78" width="140" height="26" as="geometry"/></mxCell><mxCell id="mtN1036-0Aml82Bo_X0W-26" value="Professor" style="swimlane;fontStyle=0;childLayout=stackLayout;horizontal=1;startSize=26;fillColor=none;horizontalStack=0;resizeParent=1;resizeParentMax=0;resizeLast=0;collapsible=1;marginBottom=0;" parent="1" vertex="1"><mxGeometry x="430" y="480" width="140" height="130" as="geometry"/></mxCell><mxCell id="mtN1036-0Aml82Bo_X0W-27" value="+ Nome" style="text;strokeColor=none;fillColor=none;align=left;verticalAlign=top;spacingLeft=4;spacingRight=4;overflow=hidden;rotatable=0;points=[[0,0.5],[1,0.5]];portConstraint=eastwest;" parent="mtN1036-0Aml82Bo_X0W-26" vertex="1"><mxGeometry y="26" width="140" height="26" as="geometry"/></mxCell><mxCell id="mtN1036-0Aml82Bo_X0W-28" value="+ Sobrenome" style="text;strokeColor=none;fillColor=none;align=left;verticalAlign=top;spacingLeft=4;spacingRight=4;overflow=hidden;rotatable=0;points=[[0,0.5],[1,0.5]];portConstraint=eastwest;" parent="mtN1036-0Aml82Bo_X0W-26" vertex="1"><mxGeometry y="52" width="140" height="26" as="geometry"/></mxCell><mxCell id="mtN1036-0Aml82Bo_X0W-29" value="+ Tempo de casa" style="text;fillColor=none;align=left;verticalAlign=top;spacingLeft=4;spacingRight=4;overflow=hidden;rotatable=0;points=[[0,0.5],[1,0.5]];portConstraint=eastwest;" parent="mtN1036-0Aml82Bo_X0W-26" vertex="1"><mxGeometry y="78" width="140" height="26" as="geometry"/></mxCell><mxCell id="mtN1036-0Aml82Bo_X0W-32" value="+ Código" style="text;strokeColor=none;fillColor=none;align=left;verticalAlign=top;spacingLeft=4;spacingRight=4;overflow=hidden;rotatable=0;points=[[0,0.5],[1,0.5]];portConstraint=eastwest;" parent="mtN1036-0Aml82Bo_X0W-26" vertex="1"><mxGeometry y="104" width="140" height="26" as="geometry"/></mxCell><mxCell id="mtN1036-0Aml82Bo_X0W-34" value="Pessoa" style="swimlane;fontStyle=0;childLayout=stackLayout;horizontal=1;startSize=26;fillColor=none;horizontalStack=0;resizeParent=1;resizeParentMax=0;resizeLast=0;collapsible=1;marginBottom=0;" parent="1" vertex="1"><mxGeometry x="430" y="320" width="140" height="104" as="geometry"/></mxCell><mxCell id="mtN1036-0Aml82Bo_X0W-35" value="+ Nome" style="text;strokeColor=none;fillColor=none;align=left;verticalAlign=top;spacingLeft=4;spacingRight=4;overflow=hidden;rotatable=0;points=[[0,0.5],[1,0.5]];portConstraint=eastwest;" parent="mtN1036-0Aml82Bo_X0W-34" vertex="1"><mxGeometry y="26" width="140" height="26" as="geometry"/></mxCell><mxCell id="mtN1036-0Aml82Bo_X0W-36" value="+ Sobrenome" style="text;strokeColor=none;fillColor=none;align=left;verticalAlign=top;spacingLeft=4;spacingRight=4;overflow=hidden;rotatable=0;points=[[0,0.5],[1,0.5]];portConstraint=eastwest;" parent="mtN1036-0Aml82Bo_X0W-34" vertex="1"><mxGeometry y="52" width="140" height="26" as="geometry"/></mxCell><mxCell id="mtN1036-0Aml82Bo_X0W-37" value="+ Código" style="text;strokeColor=none;fillColor=none;align=left;verticalAlign=top;spacingLeft=4;spacingRight=4;overflow=hidden;rotatable=0;points=[[0,0.5],[1,0.5]];portConstraint=eastwest;" parent="mtN1036-0Aml82Bo_X0W-34" vertex="1"><mxGeometry y="78" width="140" height="26" as="geometry"/></mxCell><mxCell id="mtN1036-0Aml82Bo_X0W-38" value="" style="endArrow=block;dashed=1;endFill=0;endSize=12;html=1;entryX=0.5;entryY=0;entryDx=0;entryDy=0;strokeWidth=1;rounded=1;shadow=0;sketch=0;jumpStyle=none;" parent="1" target="mtN1036-0Aml82Bo_X0W-26" edge="1"><mxGeometry width="160" relative="1" as="geometry"><mxPoint x="500" y="430" as="sourcePoint"/><mxPoint x="600" y="440" as="targetPoint"/></mxGeometry></mxCell><mxCell id="mtN1036-0Aml82Bo_X0W-39" value="" style="endArrow=block;dashed=1;endFill=0;endSize=12;html=1;shadow=0;strokeWidth=1;entryX=0.5;entryY=0;entryDx=0;entryDy=0;" parent="1" target="S0CsdJAvT5r21fd5XkQx-24" edge="1"><mxGeometry width="160" relative="1" as="geometry"><mxPoint x="430" y="371.5" as="sourcePoint"/><mxPoint x="220" y="372" as="targetPoint"/><Array as="points"><mxPoint x="310" y="372"/></Array></mxGeometry></mxCell><mxCell id="oIrv9wTdibyzk0VPh0hq-39" value="Professor Titular" style="swimlane;startSize=23;" parent="1" vertex="1"><mxGeometry x="310" y="670" width="180" height="200" as="geometry"/></mxCell><mxCell id="oIrv9wTdibyzk0VPh0hq-24" value="+ Nome" style="text;strokeColor=none;fillColor=none;align=left;verticalAlign=top;spacingLeft=4;spacingRight=4;overflow=hidden;rotatable=0;points=[[0,0.5],[1,0.5]];portConstraint=eastwest;" parent="oIrv9wTdibyzk0VPh0hq-39" vertex="1"><mxGeometry y="34.5" width="200" height="30" as="geometry"/></mxCell><mxCell id="oIrv9wTdibyzk0VPh0hq-41" value="+ Sobrenome" style="text;strokeColor=none;fillColor=none;align=left;verticalAlign=top;spacingLeft=4;spacingRight=4;overflow=hidden;rotatable=0;points=[[0,0.5],[1,0.5]];portConstraint=eastwest;" parent="oIrv9wTdibyzk0VPh0hq-39" vertex="1"><mxGeometry y="64.5" width="200" height="30" as="geometry"/></mxCell><mxCell id="oIrv9wTdibyzk0VPh0hq-42" value="+ Tempo de casa" style="text;strokeColor=none;fillColor=none;align=left;verticalAlign=top;spacingLeft=4;spacingRight=4;overflow=hidden;rotatable=0;points=[[0,0.5],[1,0.5]];portConstraint=eastwest;" parent="oIrv9wTdibyzk0VPh0hq-39" vertex="1"><mxGeometry y="94.5" width="200" height="30" as="geometry"/></mxCell><mxCell id="oIrv9wTdibyzk0VPh0hq-43" value="+ Código" style="text;strokeColor=none;fillColor=none;align=left;verticalAlign=top;spacingLeft=4;spacingRight=4;overflow=hidden;rotatable=0;points=[[0,0.5],[1,0.5]];portConstraint=eastwest;" parent="oIrv9wTdibyzk0VPh0hq-39" vertex="1"><mxGeometry y="124.5" width="200" height="30" as="geometry"/></mxCell><mxCell id="oIrv9wTdibyzk0VPh0hq-44" value="+ Especialidade" style="text;strokeColor=none;fillColor=none;align=left;verticalAlign=top;spacingLeft=4;spacingRight=4;overflow=hidden;rotatable=0;points=[[0,0.5],[1,0.5]];portConstraint=eastwest;" parent="oIrv9wTdibyzk0VPh0hq-39" vertex="1"><mxGeometry y="154.5" width="200" height="30" as="geometry"/></mxCell><mxCell id="oIrv9wTdibyzk0VPh0hq-45" value="Professor Adjunto" style="swimlane;startSize=23;" parent="1" vertex="1"><mxGeometry x="510" y="670" width="180" height="200" as="geometry"/></mxCell><mxCell id="oIrv9wTdibyzk0VPh0hq-46" value="+ Nome" style="text;strokeColor=none;fillColor=none;align=left;verticalAlign=top;spacingLeft=4;spacingRight=4;overflow=hidden;rotatable=0;points=[[0,0.5],[1,0.5]];portConstraint=eastwest;" parent="oIrv9wTdibyzk0VPh0hq-45" vertex="1"><mxGeometry y="34.5" width="200" height="30" as="geometry"/></mxCell><mxCell id="oIrv9wTdibyzk0VPh0hq-47" value="+ Sobrenome" style="text;strokeColor=none;fillColor=none;align=left;verticalAlign=top;spacingLeft=4;spacingRight=4;overflow=hidden;rotatable=0;points=[[0,0.5],[1,0.5]];portConstraint=eastwest;" parent="oIrv9wTdibyzk0VPh0hq-45" vertex="1"><mxGeometry y="64.5" width="200" height="30" as="geometry"/></mxCell><mxCell id="oIrv9wTdibyzk0VPh0hq-48" value="+ Tempo de casa" style="text;strokeColor=none;fillColor=none;align=left;verticalAlign=top;spacingLeft=4;spacingRight=4;overflow=hidden;rotatable=0;points=[[0,0.5],[1,0.5]];portConstraint=eastwest;" parent="oIrv9wTdibyzk0VPh0hq-45" vertex="1"><mxGeometry y="94.5" width="200" height="30" as="geometry"/></mxCell><mxCell id="oIrv9wTdibyzk0VPh0hq-49" value="+ Código" style="text;strokeColor=none;fillColor=none;align=left;verticalAlign=top;spacingLeft=4;spacingRight=4;overflow=hidden;rotatable=0;points=[[0,0.5],[1,0.5]];portConstraint=eastwest;" parent="oIrv9wTdibyzk0VPh0hq-45" vertex="1"><mxGeometry y="124.5" width="200" height="30" as="geometry"/></mxCell><mxCell id="oIrv9wTdibyzk0VPh0hq-50" value="+ Horas de monitoria" style="text;strokeColor=none;fillColor=none;align=left;verticalAlign=top;spacingLeft=4;spacingRight=4;overflow=hidden;rotatable=0;points=[[0,0.5],[1,0.5]];portConstraint=eastwest;" parent="oIrv9wTdibyzk0VPh0hq-45" vertex="1"><mxGeometry y="154.5" width="200" height="30" as="geometry"/></mxCell><mxCell id="oIrv9wTdibyzk0VPh0hq-51" value="" style="endArrow=block;dashed=1;endFill=0;endSize=12;html=1;entryX=0.5;entryY=0;entryDx=0;entryDy=0;exitX=1;exitY=0.5;exitDx=0;exitDy=0;" parent="1" source="mtN1036-0Aml82Bo_X0W-28" target="oIrv9wTdibyzk0VPh0hq-45" edge="1"><mxGeometry width="160" relative="1" as="geometry"><mxPoint x="570" y="550" as="sourcePoint"/><mxPoint x="730" y="550" as="targetPoint"/><Array as="points"><mxPoint x="600" y="545"/></Array></mxGeometry></mxCell><mxCell id="oIrv9wTdibyzk0VPh0hq-53" value="" style="endArrow=block;dashed=1;endFill=0;endSize=12;html=1;entryX=0.5;entryY=0;entryDx=0;entryDy=0;exitX=0;exitY=0.5;exitDx=0;exitDy=0;" parent="1" source="mtN1036-0Aml82Bo_X0W-28" target="oIrv9wTdibyzk0VPh0hq-39" edge="1"><mxGeometry width="160" relative="1" as="geometry"><mxPoint x="399.76" y="554" as="sourcePoint"/><mxPoint x="399.76" y="584" as="targetPoint"/><Array as="points"><mxPoint x="400" y="545"/></Array></mxGeometry></mxCell><mxCell id="oIrv9wTdibyzk0VPh0hq-66" value="" style="endArrow=diamondThin;endFill=0;endSize=24;html=1;strokeWidth=1;" parent="1" edge="1"><mxGeometry width="160" relative="1" as="geometry"><mxPoint x="599.5" y="870" as="sourcePoint"/><mxPoint x="590" y="1030" as="targetPoint"/><Array as="points"><mxPoint x="630" y="1030"/></Array></mxGeometry></mxCell><mxCell id="oIrv9wTdibyzk0VPh0hq-67" value="" style="endArrow=diamondThin;endFill=0;endSize=24;html=1;strokeWidth=1;" parent="1" edge="1"><mxGeometry width="160" relative="1" as="geometry"><mxPoint x="399.5" y="870" as="sourcePoint"/><mxPoint x="410" y="1030" as="targetPoint"/><Array as="points"><mxPoint x="370" y="1030"/></Array></mxGeometry></mxCell><mxCell id="k4V3ihr_i5Y-Pjru0V6B-3" value="Curso" style="swimlane;startSize=23;" parent="1" vertex="1"><mxGeometry x="410" y="930" width="180" height="200" as="geometry"/></mxCell><mxCell id="k4V3ihr_i5Y-Pjru0V6B-4" value="+ Nome" style="text;strokeColor=none;fillColor=none;align=left;verticalAlign=top;spacingLeft=4;spacingRight=4;overflow=hidden;rotatable=0;points=[[0,0.5],[1,0.5]];portConstraint=eastwest;" parent="k4V3ihr_i5Y-Pjru0V6B-3" vertex="1"><mxGeometry y="34.5" width="180" height="30" as="geometry"/></mxCell><mxCell id="k4V3ihr_i5Y-Pjru0V6B-5" value="+ Código" style="text;strokeColor=none;fillColor=none;align=left;verticalAlign=top;spacingLeft=4;spacingRight=4;overflow=hidden;rotatable=0;points=[[0,0.5],[1,0.5]];portConstraint=eastwest;" parent="k4V3ihr_i5Y-Pjru0V6B-3" vertex="1"><mxGeometry y="64.5" width="180" height="30" as="geometry"/></mxCell><mxCell id="k4V3ihr_i5Y-Pjru0V6B-6" value="+ Quantidade Max de Alunos" style="text;strokeColor=none;fillColor=none;align=left;verticalAlign=top;spacingLeft=4;spacingRight=4;overflow=hidden;rotatable=0;points=[[0,0.5],[1,0.5]];portConstraint=eastwest;" parent="k4V3ihr_i5Y-Pjru0V6B-3" vertex="1"><mxGeometry y="94.5" width="180" height="30" as="geometry"/></mxCell><mxCell id="k4V3ihr_i5Y-Pjru0V6B-7" value="+ Lista de Alunos Matriculados" style="text;strokeColor=none;fillColor=none;align=left;verticalAlign=top;spacingLeft=4;spacingRight=4;overflow=hidden;rotatable=0;points=[[0,0.5],[1,0.5]];portConstraint=eastwest;" parent="k4V3ihr_i5Y-Pjru0V6B-3" vertex="1"><mxGeometry y="124.5" width="180" height="30" as="geometry"/></mxCell><mxCell id="2" value="Matricula" style="swimlane;startSize=23;" vertex="1" parent="1"><mxGeometry x="20" y="910" width="180" height="200" as="geometry"/></mxCell><mxCell id="3" value="+ Data" style="text;strokeColor=none;fillColor=none;align=left;verticalAlign=top;spacingLeft=4;spacingRight=4;overflow=hidden;rotatable=0;points=[[0,0.5],[1,0.5]];portConstraint=eastwest;" vertex="1" parent="2"><mxGeometry y="34.5" width="180" height="30" as="geometry"/></mxCell><mxCell id="10" value="" style="endArrow=diamondThin;endFill=0;endSize=24;html=1;entryX=0.5;entryY=0;entryDx=0;entryDy=0;exitX=0;exitY=0.5;exitDx=0;exitDy=0;" edge="1" parent="1" source="S0CsdJAvT5r21fd5XkQx-25" target="2"><mxGeometry width="160" relative="1" as="geometry"><mxPoint x="50" y="544.5" as="sourcePoint"/><mxPoint x="210" y="544.5" as="targetPoint"/></mxGeometry></mxCell><mxCell id="11" value="" style="endArrow=diamondThin;endFill=0;endSize=24;html=1;entryX=1;entryY=0.5;entryDx=0;entryDy=0;exitX=0;exitY=0.5;exitDx=0;exitDy=0;" edge="1" parent="1" source="k4V3ihr_i5Y-Pjru0V6B-7" target="2"><mxGeometry width="160" relative="1" as="geometry"><mxPoint x="330" y="630" as="sourcePoint"/><mxPoint x="190" y="755" as="targetPoint"/><Array as="points"><mxPoint x="270" y="1070"/><mxPoint x="270" y="770"/></Array></mxGeometry></mxCell><mxCell id="12" value="DigitalHouseManager" style="swimlane;startSize=23;" vertex="1" parent="1"><mxGeometry x="520" y="40" width="180" height="200" as="geometry"/></mxCell><mxCell id="13" value="+ Lista de Alunos" style="text;strokeColor=none;fillColor=none;align=left;verticalAlign=top;spacingLeft=4;spacingRight=4;overflow=hidden;rotatable=0;points=[[0,0.5],[1,0.5]];portConstraint=eastwest;" vertex="1" parent="12"><mxGeometry y="34.5" width="180" height="30" as="geometry"/></mxCell><mxCell id="14" value="+ Lista de Professores" style="text;strokeColor=none;fillColor=none;align=left;verticalAlign=top;spacingLeft=4;spacingRight=4;overflow=hidden;rotatable=0;points=[[0,0.5],[1,0.5]];portConstraint=eastwest;" vertex="1" parent="12"><mxGeometry y="64.5" width="180" height="30" as="geometry"/></mxCell><mxCell id="15" value="+ Lista de Cursos" style="text;strokeColor=none;fillColor=none;align=left;verticalAlign=top;spacingLeft=4;spacingRight=4;overflow=hidden;rotatable=0;points=[[0,0.5],[1,0.5]];portConstraint=eastwest;" vertex="1" parent="12"><mxGeometry y="94.5" width="180" height="30" as="geometry"/></mxCell><mxCell id="18" value="Use" style="endArrow=open;endSize=12;dashed=1;html=1;entryX=0.25;entryY=0;entryDx=0;entryDy=0;exitX=0;exitY=0.5;exitDx=0;exitDy=0;" edge="1" parent="1" source="14" target="S0CsdJAvT5r21fd5XkQx-24"><mxGeometry width="160" relative="1" as="geometry"><mxPoint x="300" y="120" as="sourcePoint"/><mxPoint x="460" y="120" as="targetPoint"/><Array as="points"><mxPoint x="275" y="120"/></Array></mxGeometry></mxCell><mxCell id="19" value="Use" style="endArrow=open;endSize=12;dashed=1;html=1;exitX=1;exitY=0.5;exitDx=0;exitDy=0;entryX=1;entryY=0.5;entryDx=0;entryDy=0;" edge="1" parent="1" source="14" target="mtN1036-0Aml82Bo_X0W-27"><mxGeometry width="160" relative="1" as="geometry"><mxPoint x="760" y="120" as="sourcePoint"/><mxPoint x="880" y="120" as="targetPoint"/><Array as="points"><mxPoint x="740" y="120"/><mxPoint x="740" y="519"/></Array></mxGeometry></mxCell><mxCell id="20" value="Use" style="endArrow=open;endSize=12;dashed=1;html=1;exitX=1;exitY=0.5;exitDx=0;exitDy=0;entryX=1;entryY=0.5;entryDx=0;entryDy=0;" edge="1" parent="1" target="k4V3ihr_i5Y-Pjru0V6B-7"><mxGeometry width="160" relative="1" as="geometry"><mxPoint x="700" y="160" as="sourcePoint"/><mxPoint x="570" y="559.5" as="targetPoint"/><Array as="points"><mxPoint x="780" y="161"/><mxPoint x="780" y="1070"/></Array></mxGeometry></mxCell></root></mxGraphModel></diagram><diagram id="fzf1Q0286Iwjel0q1VAe" name="Page-2"><mxGraphModel dx="981" dy="526" grid="1" gridSize="10" guides="1" tooltips="1" connect="1" arrows="1" fold="1" page="1" pageScale="1" pageWidth="827" pageHeight="1169" math="0" shadow="0"><root><mxCell id="bYKJvCfBuwUYdbz-hcBb-0"/><mxCell id="bYKJvCfBuwUYdbz-hcBb-1" parent="bYKJvCfBuwUYdbz-hcBb-0"/><mxCell id="bYKJvCfBuwUYdbz-hcBb-2" value="Mamífero" style="swimlane;fontStyle=0;childLayout=stackLayout;horizontal=1;startSize=26;fillColor=none;horizontalStack=0;resizeParent=1;resizeParentMax=0;resizeLast=0;collapsible=1;marginBottom=0;strokeColor=#000000;" vertex="1" parent="bYKJvCfBuwUYdbz-hcBb-1"><mxGeometry x="350" width="140" height="190" as="geometry"/></mxCell><mxCell id="bYKJvCfBuwUYdbz-hcBb-3" value="+ Glândulas mamarias" style="text;strokeColor=none;fillColor=none;align=left;verticalAlign=top;spacingLeft=4;spacingRight=4;overflow=hidden;rotatable=0;points=[[0,0.5],[1,0.5]];portConstraint=eastwest;" vertex="1" parent="bYKJvCfBuwUYdbz-hcBb-2"><mxGeometry y="26" width="140" height="26" as="geometry"/></mxCell><mxCell id="bYKJvCfBuwUYdbz-hcBb-4" value="+ Corpo com pelos" style="text;strokeColor=none;fillColor=none;align=left;verticalAlign=top;spacingLeft=4;spacingRight=4;overflow=hidden;rotatable=0;points=[[0,0.5],[1,0.5]];portConstraint=eastwest;" vertex="1" parent="bYKJvCfBuwUYdbz-hcBb-2"><mxGeometry y="52" width="140" height="26" as="geometry"/></mxCell><mxCell id="bYKJvCfBuwUYdbz-hcBb-5" value="+ Correr" style="text;strokeColor=none;fillColor=none;align=left;verticalAlign=top;spacingLeft=4;spacingRight=4;overflow=hidden;rotatable=0;points=[[0,0.5],[1,0.5]];portConstraint=eastwest;" vertex="1" parent="bYKJvCfBuwUYdbz-hcBb-2"><mxGeometry y="78" width="140" height="26" as="geometry"/></mxCell><mxCell id="oJP6TJ0Ua6mEwM99TovI-13" value="Classname" style="swimlane;fontStyle=1;align=center;verticalAlign=top;childLayout=stackLayout;horizontal=1;startSize=26;horizontalStack=0;resizeParent=1;resizeParentMax=0;resizeLast=0;collapsible=1;marginBottom=0;strokeColor=#000000;" vertex="1" parent="bYKJvCfBuwUYdbz-hcBb-2"><mxGeometry y="104" width="140" height="86" as="geometry"/></mxCell><mxCell id="oJP6TJ0Ua6mEwM99TovI-14" value="+ field: type" style="text;strokeColor=none;fillColor=none;align=left;verticalAlign=top;spacingLeft=4;spacingRight=4;overflow=hidden;rotatable=0;points=[[0,0.5],[1,0.5]];portConstraint=eastwest;" vertex="1" parent="oJP6TJ0Ua6mEwM99TovI-13"><mxGeometry y="26" width="140" height="26" as="geometry"/></mxCell><mxCell id="oJP6TJ0Ua6mEwM99TovI-15" value="" style="line;strokeWidth=1;fillColor=none;align=left;verticalAlign=middle;spacingTop=-1;spacingLeft=3;spacingRight=3;rotatable=0;labelPosition=right;points=[];portConstraint=eastwest;" vertex="1" parent="oJP6TJ0Ua6mEwM99TovI-13"><mxGeometry y="52" width="140" height="8" as="geometry"/></mxCell><mxCell id="oJP6TJ0Ua6mEwM99TovI-16" value="+ method(type): type" style="text;strokeColor=none;fillColor=none;align=left;verticalAlign=top;spacingLeft=4;spacingRight=4;overflow=hidden;rotatable=0;points=[[0,0.5],[1,0.5]];portConstraint=eastwest;" vertex="1" parent="oJP6TJ0Ua6mEwM99TovI-13"><mxGeometry y="60" width="140" height="26" as="geometry"/></mxCell><mxCell id="oJP6TJ0Ua6mEwM99TovI-0" value="Cachorro" style="swimlane;fontStyle=1;align=center;verticalAlign=top;childLayout=stackLayout;horizontal=1;startSize=26;horizontalStack=0;resizeParent=1;resizeParentMax=0;resizeLast=0;collapsible=1;marginBottom=0;strokeColor=#000000;" vertex="1" parent="bYKJvCfBuwUYdbz-hcBb-1"><mxGeometry x="80" y="200" width="160" height="86" as="geometry"/></mxCell><mxCell id="oJP6TJ0Ua6mEwM99TovI-1" value="+ field: type" style="text;strokeColor=none;fillColor=none;align=left;verticalAlign=top;spacingLeft=4;spacingRight=4;overflow=hidden;rotatable=0;points=[[0,0.5],[1,0.5]];portConstraint=eastwest;" vertex="1" parent="oJP6TJ0Ua6mEwM99TovI-0"><mxGeometry y="26" width="160" height="26" as="geometry"/></mxCell><mxCell id="oJP6TJ0Ua6mEwM99TovI-2" value="" style="line;strokeWidth=1;fillColor=none;align=left;verticalAlign=middle;spacingTop=-1;spacingLeft=3;spacingRight=3;rotatable=0;labelPosition=right;points=[];portConstraint=eastwest;" vertex="1" parent="oJP6TJ0Ua6mEwM99TovI-0"><mxGeometry y="52" width="160" height="8" as="geometry"/></mxCell><mxCell id="oJP6TJ0Ua6mEwM99TovI-3" value="+ method(type): type" style="text;strokeColor=none;fillColor=none;align=left;verticalAlign=top;spacingLeft=4;spacingRight=4;overflow=hidden;rotatable=0;points=[[0,0.5],[1,0.5]];portConstraint=eastwest;" vertex="1" parent="oJP6TJ0Ua6mEwM99TovI-0"><mxGeometry y="60" width="160" height="26" as="geometry"/></mxCell><mxCell id="oJP6TJ0Ua6mEwM99TovI-4" value="Gato" style="swimlane;fontStyle=1;align=center;verticalAlign=top;childLayout=stackLayout;horizontal=1;startSize=26;horizontalStack=0;resizeParent=1;resizeParentMax=0;resizeLast=0;collapsible=1;marginBottom=0;strokeColor=#000000;" vertex="1" parent="bYKJvCfBuwUYdbz-hcBb-1"><mxGeometry x="340" y="200" width="160" height="86" as="geometry"/></mxCell><mxCell id="oJP6TJ0Ua6mEwM99TovI-5" value="+ field: type" style="text;strokeColor=none;fillColor=none;align=left;verticalAlign=top;spacingLeft=4;spacingRight=4;overflow=hidden;rotatable=0;points=[[0,0.5],[1,0.5]];portConstraint=eastwest;" vertex="1" parent="oJP6TJ0Ua6mEwM99TovI-4"><mxGeometry y="26" width="160" height="26" as="geometry"/></mxCell><mxCell id="oJP6TJ0Ua6mEwM99TovI-6" value="" style="line;strokeWidth=1;fillColor=none;align=left;verticalAlign=middle;spacingTop=-1;spacingLeft=3;spacingRight=3;rotatable=0;labelPosition=right;points=[];portConstraint=eastwest;" vertex="1" parent="oJP6TJ0Ua6mEwM99TovI-4"><mxGeometry y="52" width="160" height="8" as="geometry"/></mxCell><mxCell id="oJP6TJ0Ua6mEwM99TovI-7" value="+ method(type): type" style="text;strokeColor=none;fillColor=none;align=left;verticalAlign=top;spacingLeft=4;spacingRight=4;overflow=hidden;rotatable=0;points=[[0,0.5],[1,0.5]];portConstraint=eastwest;" vertex="1" parent="oJP6TJ0Ua6mEwM99TovI-4"><mxGeometry y="60" width="160" height="26" as="geometry"/></mxCell><mxCell id="oJP6TJ0Ua6mEwM99TovI-8" value="Ser Humano" style="swimlane;fontStyle=1;align=center;verticalAlign=top;childLayout=stackLayout;horizontal=1;startSize=26;horizontalStack=0;resizeParent=1;resizeParentMax=0;resizeLast=0;collapsible=1;marginBottom=0;strokeColor=#000000;" vertex="1" parent="bYKJvCfBuwUYdbz-hcBb-1"><mxGeometry x="620" y="200" width="160" height="86" as="geometry"/></mxCell><mxCell id="oJP6TJ0Ua6mEwM99TovI-9" value="+ field: type" style="text;strokeColor=none;fillColor=none;align=left;verticalAlign=top;spacingLeft=4;spacingRight=4;overflow=hidden;rotatable=0;points=[[0,0.5],[1,0.5]];portConstraint=eastwest;" vertex="1" parent="oJP6TJ0Ua6mEwM99TovI-8"><mxGeometry y="26" width="160" height="26" as="geometry"/></mxCell><mxCell id="oJP6TJ0Ua6mEwM99TovI-10" value="" style="line;strokeWidth=1;fillColor=none;align=left;verticalAlign=middle;spacingTop=-1;spacingLeft=3;spacingRight=3;rotatable=0;labelPosition=right;points=[];portConstraint=eastwest;" vertex="1" parent="oJP6TJ0Ua6mEwM99TovI-8"><mxGeometry y="52" width="160" height="8" as="geometry"/></mxCell><mxCell id="oJP6TJ0Ua6mEwM99TovI-11" value="+ method(type): type" style="text;strokeColor=none;fillColor=none;align=left;verticalAlign=top;spacingLeft=4;spacingRight=4;overflow=hidden;rotatable=0;points=[[0,0.5],[1,0.5]];portConstraint=eastwest;" vertex="1" parent="oJP6TJ0Ua6mEwM99TovI-8"><mxGeometry y="60" width="160" height="26" as="geometry"/></mxCell></root></mxGraphModel></diagram><diagram id="vQ6QJAtk1Fx9QSZT2JK1" name="Page-3"><mxGraphModel dx="1422" dy="762" grid="1" gridSize="10" guides="1" tooltips="1" connect="1" arrows="1" fold="1" page="1" pageScale="1" pageWidth="827" pageHeight="1169" math="0" shadow="0"><root><mxCell id="XJTQxy6DdI8myOnTarFJ-0"/><mxCell id="XJTQxy6DdI8myOnTarFJ-1" parent="XJTQxy6DdI8myOnTarFJ-0"/><mxCell id="XJTQxy6DdI8myOnTarFJ-6" value="Usuario" style="swimlane;fontStyle=1;align=center;verticalAlign=top;childLayout=stackLayout;horizontal=1;startSize=26;horizontalStack=0;resizeParent=1;resizeParentMax=0;resizeLast=0;collapsible=1;marginBottom=0;" vertex="1" parent="XJTQxy6DdI8myOnTarFJ-1"><mxGeometry x="330" y="40" width="160" height="86" as="geometry"/></mxCell><mxCell id="XJTQxy6DdI8myOnTarFJ-7" value="+ field: type" style="text;strokeColor=none;fillColor=none;align=left;verticalAlign=top;spacingLeft=4;spacingRight=4;overflow=hidden;rotatable=0;points=[[0,0.5],[1,0.5]];portConstraint=eastwest;" vertex="1" parent="XJTQxy6DdI8myOnTarFJ-6"><mxGeometry y="26" width="160" height="26" as="geometry"/></mxCell><mxCell id="XJTQxy6DdI8myOnTarFJ-8" value="" style="line;strokeWidth=1;fillColor=none;align=left;verticalAlign=middle;spacingTop=-1;spacingLeft=3;spacingRight=3;rotatable=0;labelPosition=right;points=[];portConstraint=eastwest;" vertex="1" parent="XJTQxy6DdI8myOnTarFJ-6"><mxGeometry y="52" width="160" height="8" as="geometry"/></mxCell><mxCell id="XJTQxy6DdI8myOnTarFJ-9" value="+ method(type): type" style="text;strokeColor=none;fillColor=none;align=left;verticalAlign=top;spacingLeft=4;spacingRight=4;overflow=hidden;rotatable=0;points=[[0,0.5],[1,0.5]];portConstraint=eastwest;" vertex="1" parent="XJTQxy6DdI8myOnTarFJ-6"><mxGeometry y="60" width="160" height="26" as="geometry"/></mxCell><mxCell id="XJTQxy6DdI8myOnTarFJ-14" value="Produto" style="swimlane;fontStyle=1;align=center;verticalAlign=top;childLayout=stackLayout;horizontal=1;startSize=26;horizontalStack=0;resizeParent=1;resizeParentMax=0;resizeLast=0;collapsible=1;marginBottom=0;" vertex="1" parent="XJTQxy6DdI8myOnTarFJ-1"><mxGeometry x="540" y="170" width="160" height="134" as="geometry"/></mxCell><mxCell id="XJTQxy6DdI8myOnTarFJ-15" value="+ id&#10;+ valorProduto&#10;+descrição" style="text;strokeColor=none;fillColor=none;align=left;verticalAlign=top;spacingLeft=4;spacingRight=4;overflow=hidden;rotatable=0;points=[[0,0.5],[1,0.5]];portConstraint=eastwest;" vertex="1" parent="XJTQxy6DdI8myOnTarFJ-14"><mxGeometry y="26" width="160" height="74" as="geometry"/></mxCell><mxCell id="XJTQxy6DdI8myOnTarFJ-16" value="" style="line;strokeWidth=1;fillColor=none;align=left;verticalAlign=middle;spacingTop=-1;spacingLeft=3;spacingRight=3;rotatable=0;labelPosition=right;points=[];portConstraint=eastwest;" vertex="1" parent="XJTQxy6DdI8myOnTarFJ-14"><mxGeometry y="100" width="160" height="8" as="geometry"/></mxCell><mxCell id="XJTQxy6DdI8myOnTarFJ-17" value="+ method(type): type" style="text;strokeColor=none;fillColor=none;align=left;verticalAlign=top;spacingLeft=4;spacingRight=4;overflow=hidden;rotatable=0;points=[[0,0.5],[1,0.5]];portConstraint=eastwest;" vertex="1" parent="XJTQxy6DdI8myOnTarFJ-14"><mxGeometry y="108" width="160" height="26" as="geometry"/></mxCell><mxCell id="XJTQxy6DdI8myOnTarFJ-18" value="Combo" style="swimlane;fontStyle=1;align=center;verticalAlign=top;childLayout=stackLayout;horizontal=1;startSize=26;horizontalStack=0;resizeParent=1;resizeParentMax=0;resizeLast=0;collapsible=1;marginBottom=0;" vertex="1" parent="XJTQxy6DdI8myOnTarFJ-1"><mxGeometry x="334" y="490" width="160" height="86" as="geometry"/></mxCell><mxCell id="XJTQxy6DdI8myOnTarFJ-19" value="+ field: type" style="text;strokeColor=none;fillColor=none;align=left;verticalAlign=top;spacingLeft=4;spacingRight=4;overflow=hidden;rotatable=0;points=[[0,0.5],[1,0.5]];portConstraint=eastwest;" vertex="1" parent="XJTQxy6DdI8myOnTarFJ-18"><mxGeometry y="26" width="160" height="26" as="geometry"/></mxCell><mxCell id="XJTQxy6DdI8myOnTarFJ-20" value="" style="line;strokeWidth=1;fillColor=none;align=left;verticalAlign=middle;spacingTop=-1;spacingLeft=3;spacingRight=3;rotatable=0;labelPosition=right;points=[];portConstraint=eastwest;" vertex="1" parent="XJTQxy6DdI8myOnTarFJ-18"><mxGeometry y="52" width="160" height="8" as="geometry"/></mxCell><mxCell id="XJTQxy6DdI8myOnTarFJ-21" value="+ method(type): type" style="text;strokeColor=none;fillColor=none;align=left;verticalAlign=top;spacingLeft=4;spacingRight=4;overflow=hidden;rotatable=0;points=[[0,0.5],[1,0.5]];portConstraint=eastwest;" vertex="1" parent="XJTQxy6DdI8myOnTarFJ-18"><mxGeometry y="60" width="160" height="26" as="geometry"/></mxCell><mxCell id="XJTQxy6DdI8myOnTarFJ-22" value="Carrinho" style="swimlane;fontStyle=1;align=center;verticalAlign=top;childLayout=stackLayout;horizontal=1;startSize=26;horizontalStack=0;resizeParent=1;resizeParentMax=0;resizeLast=0;collapsible=1;marginBottom=0;" vertex="1" parent="XJTQxy6DdI8myOnTarFJ-1"><mxGeometry x="70" y="180" width="170" height="150" as="geometry"/></mxCell><mxCell id="XJTQxy6DdI8myOnTarFJ-23" value="+ field: type" style="text;strokeColor=none;fillColor=none;align=left;verticalAlign=top;spacingLeft=4;spacingRight=4;overflow=hidden;rotatable=0;points=[[0,0.5],[1,0.5]];portConstraint=eastwest;" vertex="1" parent="XJTQxy6DdI8myOnTarFJ-22"><mxGeometry y="26" width="170" height="26" as="geometry"/></mxCell><mxCell id="XJTQxy6DdI8myOnTarFJ-24" value="" style="line;strokeWidth=1;fillColor=none;align=left;verticalAlign=middle;spacingTop=-1;spacingLeft=3;spacingRight=3;rotatable=0;labelPosition=right;points=[];portConstraint=eastwest;" vertex="1" parent="XJTQxy6DdI8myOnTarFJ-22"><mxGeometry y="52" width="170" height="8" as="geometry"/></mxCell><mxCell id="XJTQxy6DdI8myOnTarFJ-25" value="+ mostrarValorComprar()&#10;+ adicionarProduto()&#10;+ removerProduto()" style="text;strokeColor=none;fillColor=none;align=left;verticalAlign=top;spacingLeft=4;spacingRight=4;overflow=hidden;rotatable=0;points=[[0,0.5],[1,0.5]];portConstraint=eastwest;" vertex="1" parent="XJTQxy6DdI8myOnTarFJ-22"><mxGeometry y="60" width="170" height="90" as="geometry"/></mxCell></root></mxGraphModel></diagram></mxfile>